<svg height="30" viewBox="0 0 61 30" width="61" xmlns="http://www.w3.org/2000/svg" xmlns:xlink="http://www.w3.org/1999/xlink"><filter id="a" filterUnits="userSpaceOnUse" height="30" width="61" x="0" y="0"><feOffset dy="2"/><feGaussianBlur result="b" stdDeviation="1.5"/><feFlood flood-opacity=".161"/><feComposite in2="b" operator="in"/><feComposite in="SourceGraphic"/></filter><g filter="url(#a)"><rect fill="#5468c9" height="21" opacity=".26" rx="10.5" transform="translate(4.5 2.5)" width="52"/></g><path d="m3 15.694a5.192 5.192 0 0 1 5.194-5.194h9.917a3.778 3.778 0 0 1 0 7.556h-8.028a2.361 2.361 0 1 1 0-4.722h7.083v1.889h-7.166c-.519 0-.519.944 0 .944h8.113a1.889 1.889 0 0 0 0-3.778h-9.919a3.306 3.306 0 1 0 0 6.611h8.972v1.889h-8.972a5.192 5.192 0 0 1 -5.194-5.195z" fill="#fff" opacity=".59" transform="translate(18.267 -2.864)"/></svg>