<svg height="40" viewBox="0 0 40 40" width="40" xmlns="http://www.w3.org/2000/svg"><rect fill="#5468c9" height="40" opacity=".26" rx="15" width="40"/><path d="m22.979 76.253v-6.053a2.213 2.213 0 1 0 0-4.426v-4.774h-20.765v15.253h-2.214v3.937h25.193v-3.937zm-.522-8.788a.738.738 0 1 1 -.216.522.733.733 0 0 1 .216-.522zm-.957-4.989v2.991l-2.991-2.991zm-5.954 7.43a.738.738 0 1 1 -.738.738.739.739 0 0 1 .741-.738zm-2.214-7.43h1.476v6.081a2.216 2.216 0 0 0 -.738.439 2.216 2.216 0 0 0 -.738-.439zm-.738 7.43a.738.738 0 1 1 -.738.738.739.739 0 0 1 .744-.738zm-2.214-7.43h1.476v6.081a2.216 2.216 0 0 0 -.736.443 2.216 2.216 0 0 0 -.738-.439zm-.738 7.43a.738.738 0 1 1 -.738.738.739.739 0 0 1 .74-.738zm-2.212-7.43h1.476v6.081a2.216 2.216 0 0 0 -.738.443 2.216 2.216 0 0 0 -.738-.439zm-.738 7.43a.738.738 0 1 1 -.738.738.739.739 0 0 1 .738-.738zm-3-7.43h2.262v6.081a2.214 2.214 0 1 0 2.214 3.736 2.209 2.209 0 0 0 2.952 0 2.209 2.209 0 0 0 2.952 0 2.213 2.213 0 1 0 2.214-3.736v-6.081h.137l4.557 4.557a2.218 2.218 0 0 0 .432 2.52c.029.029.059.057.089.084v6.616h-17.811zm20.025 16.238h-22.241v-.984h22.241z" fill="#fff" opacity=".68" transform="translate(7.274 -51.21)"/></svg>