<svg height="78" viewBox="0 0 78 78" width="78" xmlns="http://www.w3.org/2000/svg"><circle cx="39" cy="39" fill="#fff" opacity="0" r="39"/><g fill="none" stroke-width="2"><path d="m5.355 31.2a4.682 4.682 0 0 1 -4.614-3.114l-.741-2.399h11.339a4.9 4.9 0 0 0 5.015-4.76v-19.017c0-.054 0-.107 0-.161a4.192 4.192 0 0 1 1.5 2.1l5.546 17.907a4.06 4.06 0 0 1 -.373 3.221 5.165 5.165 0 0 1 -3.121 2.371l-13.037 3.642a5.627 5.627 0 0 1 -1.514.21z" stroke="#fff" stroke-linecap="round" transform="translate(32.1 31.053)"/><path d="m5.228 0h14.172a5.2 5.2 0 0 1 5.228 5.161v20.618a5.2 5.2 0 0 1 -5.228 5.161h-14.172a5.2 5.2 0 0 1 -5.228-5.161v-20.618a5.2 5.2 0 0 1 5.228-5.161z" stroke="#fec02a" transform="translate(23.792 25.86)"/><path d="m301 422.09h8.275a1.637 1.637 0 0 1 1.8 1.4v2.8a1.637 1.637 0 0 1 -1.8 1.4h-6.475a1.444 1.444 0 1 1 0-2.8h5.4" stroke="#fec02a" stroke-linecap="round" stroke-miterlimit="10" transform="translate(-283.447 -392.415)"/><path d="m27.346 39.923h13.432" stroke="#fec02a" stroke-linecap="round" stroke-miterlimit="10"/><path d="m27.319 43.353h10.074" stroke="#fec02a" stroke-linecap="round" stroke-miterlimit="10"/><path d="m27.304 46.782h7.835" stroke="#fec02a" stroke-linecap="round" stroke-miterlimit="10"/><path d="m319.7 412.005a17.586 17.586 0 0 1 13.879 8.133" stroke="#fff" stroke-linecap="round" stroke-miterlimit="10" transform="translate(-278.16 -393.053)"/><path d="m324.919 408.49a17.57 17.57 0 0 1 6.686 3.582" stroke="#fff" stroke-linecap="round" stroke-miterlimit="10" transform="translate(-278.006 -393.157)"/></g></svg>