<svg height="78" viewBox="0 0 78 78" width="78" xmlns="http://www.w3.org/2000/svg"><circle cx="39" cy="39" fill="#fff" opacity="0" r="39"/><g stroke-width="2"><path d="m9.753 0a9.691 9.691 0 1 1 -9.753 9.691 9.722 9.722 0 0 1 9.753-9.691z" fill="none" stroke="#fec02a" transform="translate(23.132 17)"/><path d="m36.817 17.323a48.1 48.1 0 0 1 -16.932 2.777 47.44 47.44 0 0 1 -16.885-3.16c.623-4.652.15-8.933 3.744-12.055a20.156 20.156 0 0 1 21.349-3.145 10.008 10.008 0 0 0 -.086 1.308 9.893 9.893 0 0 0 9.881 9.882c.227 0-1.407-.008-1.181-.023.521 1.424-.061 2.909.11 4.415z" fill="none" stroke="#fec02a" transform="translate(13 36.497)"/><path d="m9.882 0a9.882 9.882 0 1 1 -9.882 9.882 9.882 9.882 0 0 1 9.882-9.882z" fill="none" stroke="#fff" transform="translate(41.007 29.663)"/><path d="m333.424 417.813a14.456 14.456 0 0 1 11.407 6.686" fill="none" stroke="#fff" stroke-linecap="round" stroke-miterlimit="10" transform="translate(-282.331 -391.511)"/><path d="m339.459 413.751a14.433 14.433 0 0 1 5.5 2.946" fill="none" stroke="#fff" stroke-linecap="round" stroke-miterlimit="10" transform="translate(-283.946 -390.424)"/><path d="m299.706 434.828 6.457 3.682 6.518-3.682" fill="none" stroke="#fec02a" stroke-linecap="round" stroke-miterlimit="10" transform="translate(-273.307 -396.065)"/><path d="m32.856 55.869v-13.424" fill="#00ae7f" stroke="#fec02a" stroke-linecap="round" stroke-miterlimit="10"/><path d="m328.143 434.783 2.71 2.839 5.073-5.586" fill="none" stroke="#fff" stroke-linecap="round" stroke-miterlimit="10" transform="translate(-280.918 -395.318)"/><path d="m493-1062.667a57.4 57.4 0 0 0 28.149 0" fill="none" stroke="#fec02a" stroke-linecap="round" stroke-miterlimit="10" transform="translate(-474.827 1122.256)"/></g></svg>