<svg height="78" viewBox="0 0 78 78" width="78" xmlns="http://www.w3.org/2000/svg"><path d="m39 0a39 39 0 1 1 -39 39 39 39 0 0 1 39-39z" fill="#fff" opacity="0"/><g stroke-miterlimit="10" stroke-width="2"><path d="m31.425 25.792h-26.965a4.465 4.465 0 0 1 -4.46-4.46v-16.873a4.465 4.465 0 0 1 4.46-4.459h26.965a4.456 4.456 0 0 1 3.715 1.99 4.592 4.592 0 1 0 -.709 9.128 4.584 4.584 0 0 0 1.455-.236v1.378a8.669 8.669 0 0 0 -10.1 8.04h10.1v1.031a4.465 4.465 0 0 1 -4.461 4.461z" fill="none" stroke="#fec02a" transform="translate(20.014 26.969)"/><path d="m33.472 52.76h7.85v6.728h-7.85z" fill="none" stroke="#fec02a"/><path d="m20 60h34.977" fill="#00ae7f" stroke="#fec02a" stroke-linecap="round"/><path d="m322.744 408-4.5 12.294a.919.919 0 0 1 -1.671.12l-2.573-4.763" fill="none" stroke="#fec02a" stroke-linecap="round" transform="translate(-281.976 -395)"/><path d="m310 439.209 3.279-2.186 1.093-4.372h2.186l2.186-4.372 3.279 2.186 3.277-5.465" fill="none" stroke="#fec02a" stroke-linecap="round" transform="translate(-282.348 -393.419)"/><circle cx="54.444" cy="33.494" fill="none" r="4.591" stroke="#fff"/><path d="m344.319 440a8.662 8.662 0 0 0 -17.294 0z" fill="none" stroke="#fff" transform="translate(-281.228 -392.728)"/><path d="m329.12 415.283a17.171 17.171 0 0 1 13.553 7.943" fill="none" stroke="#fff" stroke-linecap="round" transform="translate(-280.57 -394.323)"/><path d="m333.923 412.05a17.152 17.152 0 0 1 6.529 3.5" fill="none" stroke="#fff" stroke-linecap="round" transform="translate(-280.123 -394.623)"/></g></svg>