<svg height="78" viewBox="0 0 78 78" width="78" xmlns="http://www.w3.org/2000/svg"><path d="m39 0a39 39 0 1 1 -39 39 39 39 0 0 1 39-39z" fill="#fff" opacity="0"/><g stroke-miterlimit="10" stroke-width="2"><path d="m24.231 39.944h-21.846a2.388 2.388 0 0 1 -2.385-2.385v-35.174a2.388 2.388 0 0 1 2.385-2.385h17.393a9.019 9.019 0 0 0 8.807 10.926 9.067 9.067 0 0 0 1.961-.214v21.915a2.394 2.394 0 0 1 -.517 1.483l-1.829 2.309-2.1 2.63a2.374 2.374 0 0 1 -1.869.895z" fill="none" stroke="#fec02a" transform="translate(19 22.096)"/><path d="m23.699 37.369h18.797" fill="#00ae7f" stroke="#fec02a" stroke-linecap="round"/><path d="m23.699 42.068h16.448" fill="#00ae7f" stroke="#fec02a" stroke-linecap="round"/><path d="m23.699 46.767h12.923" fill="#00ae7f" stroke="#fec02a" stroke-linecap="round"/><path d="m23.699 53.816h12.923" fill="#00ae7f" stroke="#fec02a" stroke-linecap="round"/><path d="m312.442 422v-9.44a1.868 1.868 0 0 1 1.6-2.052h3.193a1.868 1.868 0 0 1 1.6 2.052v7.39a1.647 1.647 0 1 1 -3.193 0v-6.158" fill="none" stroke="#fec02a" stroke-linecap="round" transform="translate(-288.223 -393.689)"/><circle cx="47.584" cy="24.011" fill="none" r="9.011" stroke="#fff"/><path d="m329.486 416.941 2.472 2.588 4.625-5.093" fill="none" stroke="#fff" stroke-linecap="round" transform="translate(-285.244 -393.003)"/><path d="m55.185 34.925v18.891" fill="none" stroke="#fff" stroke-linecap="round"/><path d="m59.884 36.499v12.594" fill="none" stroke="#fff" stroke-linecap="round"/></g></svg>