<svg height="78" viewBox="0 0 78 78" width="78" xmlns="http://www.w3.org/2000/svg"><circle cx="39" cy="39" fill="#fff" opacity="0" r="39"/><g fill="none" stroke-width="2"><path d="m330.646 428.332a13.909 13.909 0 1 0 -20.47 12.185v4.583a3.071 3.071 0 0 0 3.07 3.071h6.981a3.071 3.071 0 0 0 3.07-3.071v-4.585a13.8 13.8 0 0 0 7.349-12.183z" stroke="#fec02a" transform="translate(-285.828 -390.368)"/><path d="m321.25 448.462v.059a1.892 1.892 0 0 1 -1.892 1.892h-6.61a1.892 1.892 0 0 1 -1.892-1.892v-.249" stroke="#fec02a" transform="translate(-285.195 -387.706)"/><path d="m316.286 436.974c0-1.99.021-1.359-.005-3.349 5.763.518 8.173-7.843 3.1-10.459-2.81-1.45-7.083-.033-7.083 3.472" stroke="#fec02a" transform="translate(-285.081 -389.73)"/><path d="m316.817 409.969a20.617 20.617 0 0 1 16.268 9.535" stroke="#fff" stroke-linecap="round" transform="translate(-284.725 -390.726)"/><path d="m322.659 406.036a20.607 20.607 0 0 1 7.839 4.2" stroke="#fff" stroke-linecap="round" transform="translate(-284.264 -391.036)"/><path d="m340.332 442.8-4.952-2.534a.548.548 0 0 0 -.506.005l-4.895 2.644a.543.543 0 0 1 -.794-.564l.879-5.493a.542.542 0 0 0 -.162-.478l-4.026-3.839a.543.543 0 0 1 .29-.93l5.5-.861a.545.545 0 0 0 .406-.3l2.406-5.016a.543.543 0 0 1 .974-.011l2.517 4.961a.542.542 0 0 0 .412.292l5.514.739a.543.543 0 0 1 .311.922l-3.94 3.928a.546.546 0 0 0 -.151.482l1 5.472a.544.544 0 0 1 -.783.581z" stroke="#fff" transform="translate(-284.024 -389.53)"/></g></svg>