<svg height="78" viewBox="0 0 78 78" width="78" xmlns="http://www.w3.org/2000/svg"><path d="m39 0a39 39 0 1 1 -39 39 39 39 0 0 1 39-39z" fill="#fff" opacity="0"/><g fill="none" stroke-miterlimit="10" stroke-width="2"><path d="m29.474 20h-15.789a4.211 4.211 0 0 0 -8.421 0h-3a2.262 2.262 0 0 1 -2.264-2.26v-3.88a13.86 13.86 0 0 1 13.861-13.86h16.49a13.86 13.86 0 0 1 13.86 13.86v3.88a2.262 2.262 0 0 1 -2.26 2.26h-4.051a4.211 4.211 0 0 0 -8.421 0z" stroke="#fec02a" transform="translate(15.315 33.685)"/><path d="m302.125 435.584h7.6v-7.284" stroke="#fec02a" stroke-linecap="round" transform="translate(-284.935 -392.426)"/><circle cx="24.79" cy="53.685" r="4.211" stroke="#fec02a"/><circle cx="49" cy="53.685" r="4.211" stroke="#fec02a"/><path d="m295 424.145 7.368 3.158 9.965-7.338" stroke="#fec02a" stroke-linecap="round" transform="translate(-286 -393.619)"/><path d="m317.316 416.632 3.158-2.105 2.246 1.2" stroke="#fec02a" stroke-linecap="round" transform="translate(-283.053 -394.526)"/><path d="m331.762 424.2 3.358 3.148 8.421-6.316 6.316 6.316" stroke="#fec02a" stroke-linecap="round" transform="translate(-280.857 -393.666)"/><path d="m338.9 429.055a12.478 12.478 0 0 1 3.85 10.745" stroke="#fff" stroke-linecap="round" transform="translate(-280.201 -392.607)"/><path d="m342.945 429.479a12.486 12.486 0 0 1 2.006 5" stroke="#fff" stroke-linecap="round" transform="translate(-279.668 -392.551)"/><rect height="8.982" rx=".97" stroke="#fff" width="15.579" x="37.421" y="21.544"/><rect height="8.421" rx=".97" stroke="#fff" width="6.316" x="26.614" y="22.106"/></g></svg>