<svg height="78" viewBox="0 0 78 78" width="78" xmlns="http://www.w3.org/2000/svg"><path d="m39 0a39 39 0 1 1 -39 39 39 39 0 0 1 39-39z" fill="#fff" opacity="0"/><g fill="none" stroke-miterlimit="10" stroke-width="2"><path d="m2.78 0h6.374a0 0 0 0 1 0 0v20.6a0 0 0 0 1 0 0h-6.374a2.78 2.78 0 0 1 -2.78-2.783v-15.037a2.78 2.78 0 0 1 2.78-2.78z" stroke="#fec02a" transform="translate(11 34.587)"/><path d="m2.78 0h6.374a0 0 0 0 1 0 0v20.6a0 0 0 0 1 0 0h-6.374a2.78 2.78 0 0 1 -2.78-2.783v-15.037a2.78 2.78 0 0 1 2.78-2.78z" stroke="#fff" transform="matrix(-1 0 0 -1 61.348 55.184)"/><path d="m321.449 416-12.587 7.175v26.008h6.865v-10.092a3.64 3.64 0 0 1 3.639-3.639h4.166a3.64 3.64 0 0 1 3.639 3.639v10.093h6.865v-26.009z" stroke="#fec02a" transform="translate(-285.275 -394)"/><circle cx="36.746" cy="31.726" r="4.005" stroke="#fec02a"/><path d="m333.679 420.987a14.96 14.96 0 0 1 11.808 6.92" stroke="#fff" stroke-linecap="round" transform="translate(-278.418 -392.622)"/><path d="m337.262 418.574a14.947 14.947 0 0 1 5.688 3.048" stroke="#fff" stroke-linecap="round" transform="translate(-277.428 -393.289)"/></g></svg>