<svg height="118" viewBox="0 0 360 118" width="360" xmlns="http://www.w3.org/2000/svg" xmlns:xlink="http://www.w3.org/1999/xlink"><clipPath id="a"><path d="m0 84h360v118h-360z"/></clipPath><g clip-path="url(#a)" opacity=".55" transform="translate(0 -84)"><g fill="#6667c3" opacity=".47" transform="matrix(.82903757 .5591929 -.5591929 .82903757 257.852 -263.902)"><path d="m168.083 135.286h-18.969v-21.234h18.969zm-18.113-.856h17.258v-19.522h-17.258z" transform="translate(-93.955 301.144)"/><path d="m167.371 124.261h-14.6v-6.739h14.6zm-13.746-.856h12.89v-5.027h-12.89z" transform="translate(-95.525 299.654)"/><path d="m176.762 142.637h-2.71v-5.737h2.71zm-1.854-.856h1v-4.029h-1z" transform="translate(-104.666 291.332)"/><path d="m155.48 134.169h-2.71v-2.71h2.71zm-1.854-.856h1v-1h-1z" transform="translate(-95.525 293.668)"/><path d="m162.573 134.169h-2.71v-2.71h2.71zm-1.854-.856h1v-1h-1z" transform="translate(-98.572 293.668)"/><path d="m169.668 134.169h-2.71v-2.71h2.71zm-1.854-.856h1v-1h-1z" transform="translate(-101.619 293.668)"/><path d="m155.48 144.919h-2.71v-2.71h2.71zm-1.854-.856h1v-1h-1z" transform="translate(-95.525 289.051)"/><path d="m162.573 144.919h-2.71v-2.71h2.71zm-1.854-.856h1v-1h-1z" transform="translate(-98.572 289.051)"/><path d="m169.668 144.919h-2.71v-2.71h2.71zm-1.854-.856h1v-1h-1z" transform="translate(-101.619 289.051)"/><path d="m155.48 139.544h-2.71v-2.71h2.71zm-1.854-.856h1v-1h-1z" transform="translate(-95.525 291.359)"/><path d="m162.573 139.544h-2.71v-2.71h2.71zm-1.854-.856h1v-1h-1z" transform="translate(-98.572 291.359)"/><path d="m169.668 139.544h-2.71v-2.71h2.71zm-1.854-.856h1v-1h-1z" transform="translate(-101.619 291.359)"/><path d="m176.762 134.169h-2.71v-2.71h2.71zm-1.854-.856h1v-1h-1z" transform="translate(-104.666 293.668)"/><path d="m324.689 354.675a8.692 8.692 0 1 1 8.692-8.693 8.7 8.7 0 0 1 -8.692 8.693zm0-16.656a7.963 7.963 0 1 0 7.963 7.963 7.972 7.972 0 0 0 -7.963-7.963z" transform="translate(-235.955 88.523)"/><path d="m341.815 346.347h-8.328a.365.365 0 0 1 -.365-.365v-8.328a.365.365 0 1 1 .729 0v7.963h7.963a.365.365 0 0 1 0 .729z" transform="translate(-244.752 88.523)"/><path d="m337.652 362.355a.365.365 0 0 1 -.317-.182l-4.164-7.211a.365.365 0 0 1 .631-.365l4.164 7.211a.364.364 0 0 1 -.315.547z" transform="translate(-244.752 79.726)"/><path d="m335.409 356.764a.364.364 0 0 1 -.3-.575l1.147-1.62a.365.365 0 0 1 .6.422l-1.147 1.619a.365.365 0 0 1 -.3.154z" transform="translate(-245.74 79.726)"/><path d="m336.589 357.757a.364.364 0 0 1 -.3-.565l1.711-2.612a.365.365 0 0 1 .61.4l-1.713 2.612a.364.364 0 0 1 -.308.165z" transform="translate(-246.346 79.726)"/><path d="m337.955 358.75a.365.365 0 0 1 -.315-.549l2.112-3.605a.365.365 0 0 1 .63.369l-2.112 3.605a.364.364 0 0 1 -.315.18z" transform="translate(-247.047 79.726)"/><path d="m339.334 360.069a.361.361 0 0 1 -.184-.05.365.365 0 0 1 -.131-.5l2.881-4.919a.365.365 0 0 1 .63.369l-2.886 4.925a.364.364 0 0 1 -.31.175z" transform="translate(-247.756 79.726)"/><path d="m341.222 361.4a.365.365 0 0 1 -.314-.549l3.669-6.251a.365.365 0 0 1 .629.37l-3.669 6.251a.365.365 0 0 1 -.315.179z" transform="translate(-248.726 79.726)"/><path d="m343.4 362.732a.358.358 0 0 1 -.183-.05.365.365 0 0 1 -.132-.5l3.509-6.039a.365.365 0 1 1 .631.367l-3.509 6.039a.365.365 0 0 1 -.316.183z" transform="translate(-249.842 78.931)"/><path d="m351.835 375.34-2.427-4.082 14.673-8.723 4.881-.14-2.455 4.221zm-1.411-3.823 1.67 2.808 13.87-8.246 1.69-2.905-3.36.1z" transform="translate(-271.535 34.018)"/><path d="m348.667 384.608a2.382 2.382 0 0 1 -.589-.074 2.356 2.356 0 0 1 -1.455-1.087 2.376 2.376 0 0 1 .827-3.253l1.016-.6 2.427 4.081-1.016.6a2.358 2.358 0 0 1 -1.21.333zm-1.408-1.54a1.636 1.636 0 0 0 2.239.569l.38-.226-1.67-2.808-.379.225a1.636 1.636 0 0 0 -.569 2.239z" transform="translate(-269.955 25.31)"/><path d="m0 0h.74v4.008h-.74z" transform="matrix(.85954024 -.51106808 .51106808 .85954024 79.703 404.62)"/><path d="m0 0h.74v4.008h-.74z" transform="matrix(.85954024 -.51106808 .51106808 .85954024 92.334 397.11)"/><path d="m0 0h.74v1.918h-.74z" transform="matrix(.86 -.511 .511 .86 94.52 396.935)"/><path d="m346.131 331.531a2.922 2.922 0 0 1 -.96-.163 2.912 2.912 0 1 1 2.225-.129 2.9 2.9 0 0 1 -1.265.292zm-.006-4.729a1.816 1.816 0 1 0 .793 3.45 1.816 1.816 0 0 0 -.793-3.45z" transform="translate(-238.955 78.961)"/><path d="m362.491 330.8a2.936 2.936 0 0 1 -.959-.162 2.9 2.9 0 1 1 .959.162zm-.005-4.728a1.815 1.815 0 1 0 .794 3.449 1.815 1.815 0 0 0 -.794-3.449z" transform="translate(-243.359 79.158)"/><path d="m359.288 343.555a2.936 2.936 0 0 1 -.959-.162 2.9 2.9 0 1 1 .959.162zm0-4.73a1.821 1.821 0 1 0 .6.1 1.8 1.8 0 0 0 -.604-.1z" transform="translate(-242.498 75.725)"/><path d="m356.589 337.071a.543.543 0 0 1 -.322-.105l-7.007-5.091a.548.548 0 1 1 .644-.886l6.433 4.674 1.682-4.305a.548.548 0 1 1 1.021.4l-1.941 4.966a.546.546 0 0 1 -.356.326.533.533 0 0 1 -.154.021z" transform="translate(-240.521 77.568)"/><path d="m202.929 381.322a9.07 9.07 0 1 1 9.069-9.07 9.08 9.08 0 0 1 -9.069 9.07zm0-17.337a8.267 8.267 0 1 0 8.267 8.267 8.277 8.277 0 0 0 -8.267-8.267z" transform="translate(-89.955 5.918)"/><path d="m210.46 366.185a.4.4 0 0 1 -.4-.4v-2.2a.4.4 0 1 1 .8 0v2.2a.4.4 0 0 1 -.4.4z" transform="translate(-97.487 5.918)"/><path d="m210.46 394.473a.4.4 0 0 1 -.4-.4v-2.2a.4.4 0 1 1 .8 0v2.2a.4.4 0 0 1 -.4.4z" transform="translate(-97.487 -7.233)"/><path d="m224.748 380.185h-2.2a.4.4 0 1 1 0-.8h2.2a.4.4 0 1 1 0 .8z" transform="translate(-103.106 -1.613)"/><path d="m196.46 380.185h-2.2a.4.4 0 1 1 0-.8h2.2a.4.4 0 1 1 0 .8z" transform="translate(-89.955 -1.613)"/><path d="m200.561 370.285a.4.4 0 0 1 -.284-.118l-1.556-1.556a.4.4 0 0 1 .568-.568l1.556 1.556a.4.4 0 0 1 -.284.685z" transform="translate(-92.161 3.712)"/><path d="m220.563 390.288a.4.4 0 0 1 -.284-.118l-1.556-1.556a.4.4 0 1 1 .567-.568l1.556 1.556a.4.4 0 0 1 -.284.685z" transform="translate(-101.46 -5.587)"/><path d="m219.007 370.285a.4.4 0 0 1 -.284-.685l1.556-1.556a.4.4 0 1 1 .567.568l-1.556 1.556a.4.4 0 0 1 -.283.117z" transform="translate(-101.46 3.712)"/><path d="m199 390.288a.4.4 0 0 1 -.284-.685l1.556-1.556a.4.4 0 0 1 .568.568l-1.556 1.556a.4.4 0 0 1 -.284.117z" transform="translate(-92.161 -5.587)"/><path d="m209.357 380.351a1.671 1.671 0 1 1 1.671-1.671 1.673 1.673 0 0 1 -1.671 1.671zm0-2.54a.868.868 0 1 0 .868.868.869.869 0 0 0 -.868-.867z" transform="translate(-96.384 -.51)"/><path d="m211.158 375a.4.4 0 0 1 -.156-.032.4.4 0 0 1 -.213-.526l1.428-3.366a.4.4 0 0 1 .739.314l-1.428 3.366a.4.4 0 0 1 -.37.244z" transform="translate(-97.811 2.361)"/><path d="m130.955 239.557h-31.386v-19.536zm-30.586-.8h27.788l-27.788-17.3z" transform="translate(33.045 126.265)"/><path d="m124.021 241.081h-19.494v-12.133zm-18.694-.8h15.9l-15.9-9.894z" transform="translate(30.73 122.097)"/><path d="m0 0h1.103v.8h-1.103z" transform="matrix(.47461061 -.88019587 .88019587 .47461061 136.811 350.695)"/><path d="m0 0h1.103v.8h-1.103z" transform="matrix(.47461061 -.88019587 .88019587 .47461061 138.371 351.666)"/><path d="m0 0h1.103v.8h-1.103z" transform="matrix(.47461061 -.88019587 .88019587 .47461061 139.93 352.636)"/><path d="m0 0h1.103v.8h-1.103z" transform="matrix(.47461061 -.88019587 .88019587 .47461061 141.49 353.607)"/><path d="m0 0h1.103v.8h-1.103z" transform="matrix(.47461061 -.88019587 .88019587 .47461061 143.049 354.577)"/><path d="m0 0h1.103v.8h-1.103z" transform="matrix(.47461061 -.88019587 .88019587 .47461061 144.609 355.549)"/><path d="m0 0h1.103v.8h-1.103z" transform="matrix(.47461061 -.88019587 .88019587 .47461061 146.168 356.518)"/><path d="m0 0h1.103v.8h-1.103z" transform="matrix(.47461061 -.88019587 .88019587 .47461061 147.728 357.49)"/><path d="m0 0h1.103v.8h-1.103z" transform="matrix(.47461061 -.88019587 .88019587 .47461061 149.287 358.461)"/><path d="m0 0h1.103v.8h-1.103z" transform="matrix(.47461061 -.88019587 .88019587 .47461061 150.847 359.431)"/><path d="m0 0h1.103v.8h-1.103z" transform="matrix(.47461061 -.88019587 .88019587 .47461061 152.406 360.401)"/><path d="m0 0h1.103v.8h-1.103z" transform="matrix(.475 -.88 .88 .475 153.966 361.373)"/><path d="m0 0h1.103v.8h-1.103z" transform="matrix(.47461061 -.88019587 .88019587 .47461061 155.525 362.342)"/><path d="m0 0h1.103v.8h-1.103z" transform="matrix(.474 -.88 .88 .474 157.085 363.314)"/><path d="m0 0h1.103v.799h-1.103z" transform="matrix(.474 -.88 .88 .474 158.645 364.285)"/><path d="m374.939 121.177h-23.762v-31.656h18.442l5.321 4.506zm-22.792-.97h21.822v-25.731l-4.7-3.985h-17.122z" transform="translate(-194.955 230.443)"/><path d="m384.154 95-5.49-.089v-4.64h.97v3.687l4.535.073z" transform="translate(-204.663 230.178)"/><g transform="translate(161.173 329.438)"><path d="m0 0h14.176v.97h-14.176z"/><path d="m0 0h14.176v.97h-14.176z" transform="translate(0 3.459)"/><path d="m0 0h14.176v.97h-14.176z" transform="translate(0 6.919)"/><path d="m0 0h14.176v.97h-14.176z" transform="translate(0 10.378)"/><path d="m0 0h14.176v.97h-14.176z" transform="translate(0 13.837)"/></g><g transform="translate(88.045 .158)"><path d="m137.46 330.284h-5.4a1.734 1.734 0 0 1 -1.732-1.732v-4.708a11.908 11.908 0 0 1 -7.513-11.473 12.11 12.11 0 0 1 11.6-11.579 11.96 11.96 0 0 1 4.778 23.064v4.7a1.734 1.734 0 0 1 -1.733 1.728zm-3-27.992a10.588 10.588 0 0 0 -10.143 10.124 10.414 10.414 0 0 0 7.01 10.2l.5.175v5.762a.232.232 0 0 0 .232.232h5.4a.233.233 0 0 0 .233-.232v-5.753l.5-.175a10.46 10.46 0 0 0 -3.738-20.336z"/><path d="m137.681 334.449h-5.855l-1.483-5.665h8.821zm-4.7-1.5h3.539l.7-2.665h-4.935z"/><path d="m0 0h7.364v1.5h-7.364z" transform="translate(131.079 326.587)"/><path d="m0 0h7.364v1.5h-7.364z" transform="translate(130.958 322.727)"/><path d="m0 0h1.5v7.044h-1.5z" transform="translate(134.017 316.192)"/><path d="m134.767 316.942a4.912 4.912 0 1 1 4.913-4.912 4.918 4.918 0 0 1 -4.913 4.912zm0-8.325a3.412 3.412 0 1 0 3.413 3.413 3.417 3.417 0 0 0 -3.413-3.413z"/></g><path d="m416 234.23h-17a2.955 2.955 0 0 1 -2.951-2.951v-10.494a2.955 2.955 0 0 1 2.951-2.951h17a2.955 2.955 0 0 1 2.951 2.951v10.494a2.954 2.954 0 0 1 -2.951 2.951zm-17-15.216a1.773 1.773 0 0 0 -1.771 1.771v10.494a1.773 1.773 0 0 0 1.771 1.77h17a1.773 1.773 0 0 0 1.771-1.771v-10.493a1.773 1.773 0 0 0 -1.771-1.771z" transform="translate(-155.955 107.596)"/><path d="m406.389 231.758v-9.617l8.329 4.808zm1.18-7.572v5.529l4.787-2.765z" transform="translate(-158.158 106.679)"/><path d="m222.994 65.675h-5.01v-8.513h5.01zm-3.78-1.23h2.55v-6.053h-2.55z" transform="translate(32.767 236.078)"/><path d="m222.251 57.9h-4.032a1.65 1.65 0 0 1 -1.648-1.648v-.175a1.649 1.649 0 0 1 1.648-1.648h4.032a1.65 1.65 0 0 1 1.648 1.648v.175a1.651 1.651 0 0 1 -1.648 1.648zm-4.032-2.24a.418.418 0 0 0 -.418.417v.175a.418.418 0 0 0 .418.418h4.032a.419.419 0 0 0 .418-.418v-.175a.418.418 0 0 0 -.418-.417z" transform="translate(33.022 236.57)"/><path d="m222.884 81.186h-7.839l-.145-.086a8.081 8.081 0 1 1 8.126 0zm-7.5-1.23h7.166a6.851 6.851 0 1 0 -7.166 0z" transform="translate(34.045 234.481)"/><path d="m198.282 77.144a3.97 3.97 0 1 1 3.97-3.97 3.975 3.975 0 0 1 -3.97 3.97zm0-6.44a2.47 2.47 0 1 0 2.47 2.47 2.472 2.472 0 0 0 -2.47-2.474z" transform="translate(-4.955 284.158)"/><path d="m169.333 109.464a3.97 3.97 0 1 1 3.97-3.97 3.975 3.975 0 0 1 -3.97 3.97zm0-6.44a2.47 2.47 0 1 0 2.47 2.47 2.473 2.473 0 0 0 -2.47-2.47z" transform="translate(33.045 230.158)"/><path d="m0 0h1.5v6.905h-1.5z" transform="translate(133.247 385.31)"/><path d="m0 0h6.905v1.5h-6.905z" transform="translate(130.545 388.013)"/><g transform="translate(-75.955 243.158)"><path d="m143.693 230.8a3.97 3.97 0 1 1 3.971-3.97 3.975 3.975 0 0 1 -3.971 3.97zm0-6.441a2.47 2.47 0 1 0 2.471 2.471 2.473 2.473 0 0 0 -2.471-2.474z"/><path d="m143.693 238.087a10.776 10.776 0 0 1 -1.284-.082l-.492-.059-.875-3-3.067-1.773-3.026.733-.3-.392a10.233 10.233 0 0 1 -1.288-2.218l-.189-.452 2.152-2.25v-3.542l-2.161-2.268.2-.457a10.39 10.39 0 0 1 1.306-2.214l.3-.382 3 .73 3.067-1.771.873-2.984.492-.059a10.041 10.041 0 0 1 2.569 0l.491.059.874 2.984 3.067 1.771 3-.73.3.382a10.353 10.353 0 0 1 1.307 2.214l.2.457-2.161 2.268v3.542l2.151 2.25-.188.453a10.225 10.225 0 0 1 -1.29 2.217l-.3.392-3.025-.733-3.067 1.773-.876 3-.491.059a10.779 10.779 0 0 1 -1.269.082zm-.617-1.524a7.956 7.956 0 0 0 1.235 0l.763-2.614 4.107-2.375 2.64.64a8.691 8.691 0 0 0 .617-1.053l-1.877-1.964-.005-4.743 1.878-1.972a8.725 8.725 0 0 0 -.622-1.06l-2.631.64-4.109-2.372-.761-2.6a8.21 8.21 0 0 0 -1.235 0l-.762 2.6-4.108 2.373-2.631-.64a8.725 8.725 0 0 0 -.622 1.06l1.878 1.972v4.743l-1.877 1.964a8.552 8.552 0 0 0 .616 1.053l2.641-.64 4.107 2.375z"/></g><g transform="translate(81.045 206.158)"><path d="m195.712 134.342a3.641 3.641 0 1 1 3.642-3.641 3.646 3.646 0 0 1 -3.642 3.641zm0-5.782a2.141 2.141 0 1 0 2.142 2.141 2.143 2.143 0 0 0 -2.142-2.141z"/><path d="m201.495 120.892a3.641 3.641 0 1 1 3.641-3.641 3.645 3.645 0 0 1 -3.641 3.641zm0-5.782a2.141 2.141 0 1 0 2.141 2.141 2.143 2.143 0 0 0 -2.141-2.141z"/><path d="m210.512 128.437a3.641 3.641 0 1 1 3.641-3.642 3.646 3.646 0 0 1 -3.641 3.642zm0-5.783a2.141 2.141 0 1 0 2.141 2.141 2.144 2.144 0 0 0 -2.141-2.141z"/><path d="m198.282 130.129a.75.75 0 0 1 -.354-1.411l8.483-4.544-3.774-4.07a.75.75 0 0 1 1.1-1.02l4.434 4.783a.75.75 0 0 1 -.2 1.171l-9.339 5a.751.751 0 0 1 -.35.091z"/></g><path d="m0 0h1.5v6.904h-1.5z" transform="translate(91.066 381.243)"/><path d="m0 0h6.905v1.5h-6.905z" transform="translate(88.364 383.945)"/><path d="m393.69 196.1a2.557 2.557 0 1 1 2.557-2.557 2.56 2.56 0 0 1 -2.557 2.557zm0-3.614a1.057 1.057 0 1 0 1.057 1.057 1.058 1.058 0 0 0 -1.057-1.06z" transform="translate(-193.955 120.158)"/><path d="m0 0h1.5v6.905h-1.5z" transform="translate(274.536 297.228)"/><path d="m0 0h6.905v1.5h-6.905z" transform="translate(271.834 299.93)"/><path d="m435.2 200.105.5-4.664-3.143-3.482 4.59-.968 2.339-4.066 2.339 4.066 4.59.968-3.143 3.482.5 4.664-4.282-1.914zm4.282-3.034 3.077 1.375-.357-3.351 2.259-2.5-3.3-.7-1.682-2.921-1.679 2.926-3.3.7 2.26 2.5-.357 3.351z" transform="translate(-256.955 112.303)"/></g></g></svg>