<svg height="58.728" viewBox="0 0 57.969 58.728" width="57.969" xmlns="http://www.w3.org/2000/svg"><path d="m11.526 57.653a17.471 17.471 0 0 1 -5.3-3.1l.026.02.049.042 4.2-3.675a12.041 12.041 0 0 0 7.113 2.308 12.162 12.162 0 0 0 12.006-10.359v-42.889h5.543v43.2h-.053a17.622 17.622 0 0 1 -17.5 15.531 17.6 17.6 0 0 1 -6.084-1.078zm-9.716-8.735a17.782 17.782 0 0 0 1.748 2.817 17.444 17.444 0 0 1 -1.748-2.817zm4.942-2.235a12.194 12.194 0 0 1 -1.275-5.412v-.081a11.987 11.987 0 0 0 1.333 5.445l-.056.048zm-6.752-5.152a17.972 17.972 0 0 0 .371 3.221 17.858 17.858 0 0 1 -.371-3.221zm23.094-17.168a17.7 17.7 0 0 0 -4.46-.843 17.618 17.618 0 0 1 4.461.837z" fill="#5468c9" transform="translate(.005)"/><path d="m6.3 31.124a17.62 17.62 0 1 1 26.208-22.924l-26.208 22.923zm11.7-25.643a12.557 12.557 0 0 0 -8.857 3.6 12.135 12.135 0 0 0 -2.386 14.112l18.358-15.54c-.306-.208-.635-.411-.978-.6a12.72 12.72 0 0 0 -6.13-1.572z" fill="#fec02a" transform="translate(0 23.491)"/><path d="m12.243 35.106a14.208 14.208 0 0 1 -9.966-4.013 13.837 13.837 0 0 1 -2.277-2.893 17.54 17.54 0 0 0 1.989-3.27 17.447 17.447 0 0 0 1.382-4.414 19.628 19.628 0 0 0 .258 2.318c.839 4.479 3.979 7.047 8.613 7.047a9.453 9.453 0 0 0 6.264-2.218 13.056 13.056 0 0 0 2.716-4.845l.025-1.935v-20.883h5.09v21.19c.016.277.025.554.025.825a12.543 12.543 0 0 1 -4.14 9.383 14.736 14.736 0 0 1 -9.979 3.708z" fill="#00ae7f" transform="translate(31.607 23.621)"/></svg>